<svg width="104" height="98" viewBox="0 0 104 98" fill="none" xmlns="http://www.w3.org/2000/svg">
<path fill-rule="evenodd" clip-rule="evenodd" d="M42 55.7268V98H0V71.7394C0 55.9403 1.48485 43.9042 4.45455 35.6311C7.42424 27.3579 12.0114 19.752 18.2159 12.8132C24.4205 5.87441 32.3485 0.270016 42 -4V15.3752C36.9091 18.2575 33.0114 21.8603 30.3068 26.1837C27.6023 30.5071 25.5606 35.044 24.1818 39.7943C22.803 44.5447 22.1136 49.8556 22.1136 55.7268H42ZM104 55.7268V98H62V71.7394C62 55.9403 63.4848 43.9042 66.4545 35.6311C69.4242 27.3579 73.9848 19.752 80.1364 12.8132C86.2879 5.87441 94.2424 0.270016 104 -4V15.3752C98.9091 18.2575 95.0114 21.8603 92.3068 26.1837C89.6023 30.5071 87.5606 35.044 86.1818 39.7943C84.803 44.5447 84.1136 49.8556 84.1136 55.7268H104Z" fill="#A775F1"/>
</svg>
